<svg xmlns="http://www.w3.org/2000/svg" width="240" height="240" viewBox="0 0 240 240"><defs><linearGradient id="paper" x2="1" y2="1"><stop stop-color="#fff9e7"/><stop offset="1" stop-color="#ded6b7"/></linearGradient><linearGradient id="green" x2="1" y2="1"><stop stop-color="#8cbb53"/><stop offset="1" stop-color="#356436"/></linearGradient><linearGradient id="yellow" x2="1" y2="1"><stop stop-color="#ffe373"/><stop offset="1" stop-color="#e7a936"/></linearGradient><linearGradient id="red" x2="1" y2="1"><stop stop-color="#fa7e5e"/><stop offset="1" stop-color="#cf3e2d"/></linearGradient><linearGradient id="bread" x2="1" y2="1"><stop stop-color="#edc278"/><stop offset="1" stop-color="#be7d35"/></linearGradient><filter id="s"><feDropShadow dx="0" dy="6" stdDeviation="5" flood-color="#263d1c" flood-opacity=".12"/></filter></defs><ellipse cx="120" cy="209" rx="64" ry="9" fill="#263d1c" opacity=".055"/><g filter="url(#s)"><path d="M108 79q-63-28-63 43c0 42 33 80 61 66 24 12 57-19 61-61 6-54-35-66-59-48z" fill="url(#red)"/><path d="m108 82 7-28" stroke="#836038" stroke-width="7"/><path d="M115 64q3-31 42-18-8 30-42 18z" fill="url(#green)"/><path d="M69 113q-10 27 6 47" stroke="#ffb09a" stroke-width="7" fill="none" stroke-linecap="round"/><path d="M162 142q-35-14-37 18c-2 22 18 48 36 42 23 7 40-19 38-38-4-29-23-32-37-22z" fill="#dfa744"/><path d="m162 142 3-14" stroke="#79643a" stroke-width="4"/></g></svg>