<svg xmlns="http://www.w3.org/2000/svg" width="240" height="240" viewBox="0 0 240 240"><defs><linearGradient id="paper" x2="1" y2="1"><stop stop-color="#fff9e7"/><stop offset="1" stop-color="#ded6b7"/></linearGradient><linearGradient id="green" x2="1" y2="1"><stop stop-color="#8cbb53"/><stop offset="1" stop-color="#356436"/></linearGradient><linearGradient id="yellow" x2="1" y2="1"><stop stop-color="#ffe373"/><stop offset="1" stop-color="#e7a936"/></linearGradient><linearGradient id="red" x2="1" y2="1"><stop stop-color="#fa7e5e"/><stop offset="1" stop-color="#cf3e2d"/></linearGradient><linearGradient id="bread" x2="1" y2="1"><stop stop-color="#edc278"/><stop offset="1" stop-color="#be7d35"/></linearGradient><filter id="s"><feDropShadow dx="0" dy="6" stdDeviation="5" flood-color="#263d1c" flood-opacity=".12"/></filter></defs><ellipse cx="120" cy="209" rx="64" ry="9" fill="#263d1c" opacity=".055"/><g filter="url(#s)"><path d="M81 27h78l-7 25 25 24 8 114q-55 21-130 0L64 76l25-24z" fill="#ece9d1" opacity=".8"/><path d="M76 72q44-39 88 0l9 111q-53 15-106 0z" fill="url(#bread)"/><path d="M87 70q31-20 60 0M86 89q35-22 64 0M84 110q35-23 68 0" fill="none" stroke="#f5daa5" stroke-width="5"/><path d="M57 124h126v66q-61 17-126 0z" fill="#6e8a59"/><text x="120" y="144" text-anchor="middle" fill="#fff7df" font-family="Arial" font-size="10" letter-spacing="2">FRESHLANE</text><text x="120" y="166" text-anchor="middle" fill="#fff7df" font-family="Georgia" font-size="20" font-weight="bold">whole wheat</text><text x="120" y="182" text-anchor="middle" fill="#fff7df" font-family="Arial" font-size="7" letter-spacing="1">BAKED WITH LOVE</text><path d="M80 27h80" stroke="#adbd90" stroke-width="5"/></g></svg>