<svg xmlns="http://www.w3.org/2000/svg" width="240" height="240" viewBox="0 0 240 240"><defs><linearGradient id="paper" x2="1" y2="1"><stop stop-color="#fff9e7"/><stop offset="1" stop-color="#ded6b7"/></linearGradient><linearGradient id="green" x2="1" y2="1"><stop stop-color="#8cbb53"/><stop offset="1" stop-color="#356436"/></linearGradient><linearGradient id="yellow" x2="1" y2="1"><stop stop-color="#ffe373"/><stop offset="1" stop-color="#e7a936"/></linearGradient><linearGradient id="red" x2="1" y2="1"><stop stop-color="#fa7e5e"/><stop offset="1" stop-color="#cf3e2d"/></linearGradient><linearGradient id="bread" x2="1" y2="1"><stop stop-color="#edc278"/><stop offset="1" stop-color="#be7d35"/></linearGradient><filter id="s"><feDropShadow dx="0" dy="6" stdDeviation="5" flood-color="#263d1c" flood-opacity=".12"/></filter></defs><ellipse cx="120" cy="209" rx="64" ry="9" fill="#263d1c" opacity=".055"/><g filter="url(#s)"><path d="M69 38h102l-8 23 12 139q-54 14-110 0L78 61z" fill="url(#paper)"/><path d="M69 39h102" stroke="#c0b691" stroke-width="6"/><rect x="72" y="91" width="98" height="67" fill="#627847"/><text x="120" y="109" text-anchor="middle" fill="#fff7db" font-family="Arial" font-size="10" letter-spacing="2">FRESHLANE</text><text x="120" y="131" text-anchor="middle" fill="#fff7db" font-family="Georgia" font-size="20" font-weight="bold">basmati</text><text x="120" y="147" text-anchor="middle" fill="#fff7db" font-family="Arial" font-size="7" letter-spacing="1">LONG GRAIN RICE</text><path d="M116 83q-12-30-1-42m0 20-16-11m16 1 16-8m-16 27-14-8m14-1 14-10" fill="none" stroke="#b69b56" stroke-width="3"/><path d="M91 178q29-18 58 0l-8 14H99z" fill="#f3e9c9" stroke="#cbbf96"/><path d="m103 174 5 2m5-6 5 3m8-2 6 3m-15 1 5 2" stroke="#d7c9a0" stroke-width="2"/></g></svg>